<svg width="80" height="81" viewBox="0 0 80 81" fill="none" xmlns="http://www.w3.org/2000/svg">
<rect width="80" height="80" transform="translate(0 0.5)" fill="white"/>
<path fill-rule="evenodd" clip-rule="evenodd" d="M13.2363 9.73828C11.0272 9.73828 9.23633 11.5291 9.23633 13.7383V67.2617C9.23633 69.4708 11.0272 71.2617 13.2363 71.2617H38.2449L38.4052 54.8065L38.4788 43.4612H32.7194L30.9719 39.5778H27.4768C27.4768 39.5778 27.324 44.0686 21.6135 44.3046C18.2568 44.4433 15.4311 40.976 15.4311 37.6974C15.4311 33.6859 18.0268 30.3351 22.463 30.6459C26.7001 30.9428 27.4768 34.9538 27.4768 34.9538H30.9719L32.7194 30.6459L49.2239 30.6459V34.4224L52.719 34.4224L55.8258 32.4807V22.5861L62.4275 22.5861V52.1035H55.8258L55.8258 42.7915L52.719 40.0731L49.2239 40.0731V43.4612H44.2381V54.8065L44.2381 71.2617H66.763C68.9722 71.2617 70.763 69.4708 70.763 67.2617V13.7383C70.763 11.5291 68.9722 9.73828 66.763 9.73828H13.2363Z" fill="url(#paint0_linear_2047_24010)"/>
<defs>
<linearGradient id="paint0_linear_2047_24010" x1="1.78068" y1="42.2686" x2="70.763" y2="42.2686" gradientUnits="userSpaceOnUse">
<stop stop-color="#F6CF9B"/>
<stop offset="1" stop-color="#A87026"/>
</linearGradient>
</defs>
</svg>
