<svg width="80" height="81" viewBox="0 0 80 81" fill="none" xmlns="http://www.w3.org/2000/svg">
<rect width="80" height="80" transform="translate(0 0.5)" fill="white"/>
<path d="M39.3285 70.0054C39.7094 70.3527 40.2955 70.3499 40.6768 70.003C54.4622 57.4624 63.2984 48.7006 67.1858 43.7177C71.1225 38.6608 73.091 33.5939 73.091 28.5164C73.091 23.5681 71.2922 19.309 67.6946 15.7387C64.0905 12.1683 59.7938 10.3828 54.8046 10.3828C51.7637 10.3828 48.9367 10.9667 46.3235 12.1341C44.138 13.1133 42.3032 14.4023 40.8191 16.0015C40.3808 16.4738 39.6154 16.4777 39.1737 16.0087C37.6645 14.4061 35.8156 13.1147 33.6268 12.1341C31.0203 10.9667 28.2102 10.3828 25.1965 10.3828C20.2618 10.3828 15.9821 12.1647 12.3573 15.7284C8.72587 19.292 6.91016 23.5512 6.91016 28.5065C6.91016 31.1196 7.25989 33.5295 7.95901 35.7354C8.65813 37.9278 10.1988 40.507 12.5815 43.4736C14.9572 46.4262 18.307 50.0373 22.6305 54.3068C26.8138 58.4373 32.3797 63.67 39.3285 70.0054Z" fill="url(#paint0_linear_2047_24016)"/>
<path d="M40 25.6846V40.5003H54.8153" stroke="white" stroke-width="2.48" stroke-linecap="round" stroke-linejoin="round"/>
<defs>
<linearGradient id="paint0_linear_2047_24016" x1="3.23453" y1="26.7737" x2="73.091" y2="26.7737" gradientUnits="userSpaceOnUse">
<stop stop-color="#F6CF9B"/>
<stop offset="1" stop-color="#A87026"/>
</linearGradient>
</defs>
</svg>
