<svg width="81" height="69" viewBox="0 0 81 69" fill="none" xmlns="http://www.w3.org/2000/svg">
<path d="M11.6318 37.9203C11.6318 22.1978 24.3775 9.45215 40.1 9.45215C55.8226 9.45215 68.5682 22.1978 68.5682 37.9203V55.8023C68.5682 57.8501 66.9081 59.5103 64.8602 59.5103H15.3398C13.292 59.5103 11.6318 57.8501 11.6318 55.8023V37.9203Z" fill="url(#paint0_linear_2047_24382)"/>
<path fill-rule="evenodd" clip-rule="evenodd" d="M32.0857 48.273H32.7405V43.6882C33.0677 44.5805 34.6713 45.7497 34.6713 45.7497C34.6713 45.7497 35.9149 46.7345 36.5041 48.0883L36.8968 48.273V41.5958H36.2424V46.2729C35.8823 45.3805 34.475 44.3343 34.475 44.3343C33.395 43.442 32.6749 42.2111 32.5113 41.6265L32.0857 41.5035V48.273ZM39.2206 41.5958H40.1371V48.273H39.2206V41.5958ZM38.7952 39.6265C38.7952 39.1341 39.1877 38.7648 39.7114 38.7648C40.1696 38.7648 40.5953 39.1341 40.5953 39.6265C40.5953 40.0879 40.1696 40.4881 39.7114 40.4881C39.1877 40.4881 38.7952 40.0879 38.7952 39.6265ZM46.6172 43.1344C46.3881 43.1959 46.1589 43.1036 45.9298 42.9189C45.6026 42.642 45.4719 42.365 45.0462 42.1189C44.5879 41.9035 43.9336 41.8727 43.5408 42.1496C43.1808 42.3958 43.1808 42.9497 43.5735 43.2574C44.3262 43.8112 45.1443 44.1189 46.0937 44.5805C47.8282 45.442 48.1228 46.9499 46.9117 47.7192C45.8973 48.3653 44.6207 48.4268 43.4753 48.0268C42.5916 47.6884 41.9042 47.0114 41.8061 46.1806C42.3953 46.1806 42.5916 46.4268 42.8207 46.7652C43.1808 47.2268 43.4099 47.4115 43.9336 47.6267C44.6862 47.9038 45.5371 47.8114 46.0282 47.5345C46.7482 47.1038 46.65 46.396 46.1264 45.9344C45.0462 44.9806 43.7044 44.7037 42.9517 43.9959C42.2971 43.3805 42.068 42.7035 42.7555 41.9957C43.3443 41.4111 44.9154 41.2266 45.8317 41.965C46.2243 42.3036 46.519 42.7035 46.6172 43.1344ZM49.2682 48.0883H50.2174V46.2729H52.8031V48.1808H53.7848V41.5958H52.8031V45.7497H50.2174V41.5958H49.2682V48.0883ZM18.929 42.0266C18.7981 41.7804 18.9943 41.1342 19.78 41.1957H23.6417C24.1328 41.2266 24.4272 40.888 25.049 40.9495C24.1654 41.6265 24.0674 41.965 23.9037 42.6112L23.2819 47.3807C23.1183 49.3192 23.7071 50.9193 25.2456 52.2424C24.2966 52.3655 22.2344 50.9501 22.169 48.3653C22.1035 47.0729 22.4964 42.9497 22.4964 42.9497C22.5946 42.2727 23.0528 41.7804 23.0528 41.7804H19.387C19.1582 41.8112 19.0272 41.8112 18.929 42.0266ZM58.4321 47.8729C57.6796 47.2883 57.2213 46.796 56.7631 45.8422C56.3048 44.9806 56.2722 43.9651 56.4684 43.2574C56.6975 42.4881 57.2539 41.9342 57.7777 41.5343C58.3668 41.9342 58.9886 42.4265 59.4467 43.1344C60.1995 44.3343 60.1995 45.1959 59.7087 46.3653C59.414 47.0421 59.0869 47.4422 58.4321 47.8729ZM58.0394 40.765C57.0902 41.4726 56.3049 42.0881 55.8795 43.0112C55.4213 43.9344 55.2904 45.2576 55.8795 46.396C56.534 47.6577 57.2867 48.3345 58.1704 49.1653C58.7922 49.8116 59.9704 51.104 59.5777 52.2424C59.8722 52.2424 60.2649 51.5655 60.3305 51.3193C60.4942 50.5192 60.3961 50.1193 60.0358 49.5347C59.8067 49.1346 59.316 48.7346 58.9557 48.3345C59.4796 47.9346 60.0358 47.3498 60.4942 46.7652C61.0833 45.9959 61.4431 44.7037 60.6906 43.442C60.0032 42.2419 58.0723 41.1342 58.0394 40.765ZM26.5548 46.2729H29.3038V43.3496C28.6164 44.5497 26.98 45.1959 26.5548 46.2729ZM26.2275 48.273C25.9655 47.6577 26.1619 46.9806 26.3256 46.7345H29.3038V48.273H30.0567V41.4726C30.0567 41.4726 29.8274 41.4419 29.6639 41.6881C28.5512 43.3496 27.7003 43.7805 26.4566 44.9497C25.4091 45.9344 24.6236 47.0421 25.0163 48.273H26.2275ZM46.2899 28.9489C46.519 27.9336 45.8317 27.0104 44.7516 27.0104H41.8061C41.0534 27.0411 40.039 26.4565 40.039 26.4565V31.103C40.039 35.8108 42.7881 37.811 44.0643 37.9955C44.2934 38.0879 44.4571 38.0264 44.1627 37.811C42.4278 36.7648 41.4134 34.2723 41.3153 32.1491V27.9029C41.6754 28.1181 42.3624 28.1489 42.3624 28.1489H44.9808C45.6681 28.1489 46.0282 28.3643 46.2899 28.9489ZM33.1003 28.9489C32.8712 27.9336 33.5914 27.0104 34.6386 27.0104H37.5843C38.3697 27.0411 39.3516 26.4565 39.3516 26.4565V31.103C39.3516 35.8108 36.6022 37.811 35.3259 37.9955C35.0968 38.0879 34.9333 38.0264 35.2279 37.811C36.9624 36.7648 37.977 34.2723 38.075 32.1491V27.9029C37.7152 28.1181 37.0278 28.1489 37.0278 28.1489H34.4422C33.755 28.1489 33.395 28.3643 33.1003 28.9489Z" fill="white"/>
<g opacity="0.4">
<path d="M76.8135 53.3408V57.6786C76.8135 62.8166 72.6483 66.9818 67.5103 66.9818H12.6962C7.55813 66.9818 3.39293 62.8166 3.39293 57.6786V53.8963" stroke="url(#paint1_linear_2047_24382)" stroke-width="2.48086" stroke-linecap="round" stroke-linejoin="round"/>
<path d="M76.8135 41.268V39.5647C76.8135 18.8183 60.3777 2 40.1032 2C19.8287 2 3.39293 18.8183 3.39293 39.5647V41.5771" stroke="url(#paint2_linear_2047_24382)" stroke-width="2.48086" stroke-linecap="round" stroke-linejoin="round"/>
<path d="M2.67213 48.5981C2.97652 48.0116 3.71177 48.0116 4.01616 48.5981L7.33419 54.9918C7.60336 55.5105 7.36383 56.1504 6.90497 56.3208C6.75252 56.3774 6.58738 56.3232 6.44467 56.2453L3.34415 54.5519L0.243626 56.2453C0.10091 56.3232 -0.0642253 56.3774 -0.216673 56.3208C-0.67554 56.1504 -0.915061 55.5105 -0.645896 54.9918L2.67213 48.5981Z" fill="#A87026"/>
<path d="M77.5271 46.3506C77.2227 46.9372 76.4874 46.9372 76.1831 46.3506L72.865 39.9569C72.5959 39.4383 72.8354 38.7983 73.2943 38.628C73.4467 38.5714 73.6118 38.6255 73.7546 38.7034L76.8551 40.3968L79.9556 38.7034C80.0983 38.6255 80.2634 38.5714 80.4159 38.628C80.8748 38.7983 81.1143 39.4383 80.8451 39.9569L77.5271 46.3506Z" fill="#E5BB82"/>
</g>
<defs>
<linearGradient id="paint0_linear_2047_24382" x1="11.6318" y1="34.4812" x2="68.5682" y2="34.4812" gradientUnits="userSpaceOnUse">
<stop stop-color="#F6CF9B"/>
<stop offset="1" stop-color="#A87026"/>
</linearGradient>
<linearGradient id="paint1_linear_2047_24382" x1="94.0629" y1="59.3343" x2="63.3614" y2="31.0048" gradientUnits="userSpaceOnUse">
<stop stop-color="#F5CE9B"/>
<stop offset="1" stop-color="#A76F25"/>
</linearGradient>
<linearGradient id="paint2_linear_2047_24382" x1="94.0629" y1="26.2777" x2="42.4637" y2="9.82968" gradientUnits="userSpaceOnUse">
<stop stop-color="#F5CE9B"/>
<stop offset="1" stop-color="#A76F25"/>
</linearGradient>
</defs>
</svg>
