<svg width="105" height="80" viewBox="0 0 105 80" fill="none" xmlns="http://www.w3.org/2000/svg">
<g clip-path="url(#clip0_2047_24393)">
<path d="M60.3375 37.8097C60.3375 42.3553 56.649 46.0415 52.1 46.0415C47.5516 46.0415 43.8633 42.3553 43.8633 37.8097C43.8633 33.2635 47.5516 29.5774 52.1 29.5774C56.649 29.5774 60.3375 33.2635 60.3375 37.8097Z" fill="#BD8946"/>
<path d="M52.1003 0.373886C52.1003 0.373886 53.7487 0.198307 55.831 1.84522C57.9129 3.4926 99.9927 45.7193 99.9927 45.7193C99.9927 45.7193 102.508 48.3206 102.596 51.6161C102.682 54.9115 98.8648 58.8989 93.659 58.726H64.5937L53.0645 46.6395H75.506C75.506 46.6395 81.3394 45.3736 76.3932 40.171C71.448 34.9686 53.5749 17.2803 53.5749 17.2803C53.5749 17.2803 53.2277 16.7596 52.1003 16.7596C50.972 16.7596 50.6248 17.2803 50.6248 17.2803C50.6248 17.2803 32.7529 34.9686 27.807 40.171C22.8614 45.3736 28.6945 46.6395 28.6945 46.6395H51.1356L39.6067 58.726H10.5412C5.33521 58.8989 1.51805 54.9115 1.60497 51.6161C1.69189 48.3206 4.20797 45.7193 4.20797 45.7193C4.20797 45.7193 46.2876 3.4926 48.3691 1.84522C50.4509 0.198307 52.1003 0.373886 52.1003 0.373886Z" fill="#BD8946"/>
<path d="M94.6462 66.8912H9.55408C9.55408 66.8912 3.9095 66.3273 0.0996094 60.687C0.0996094 60.687 4.19199 71.123 6.87321 71.123H97.3265C100.008 71.123 104.101 60.687 104.101 60.687C100.291 66.3273 94.6462 66.8912 94.6462 66.8912Z" fill="#BD8946"/>
<path d="M4.67264 77.9031H5.41705C5.66858 77.9031 5.84566 77.8351 5.94871 77.6994C6.0519 77.5635 6.10354 77.381 6.10354 77.1521C6.10354 76.9404 6.05227 76.769 5.95033 76.6398C5.84821 76.5106 5.66932 76.4462 5.41381 76.4462H4.67264V77.9031ZM4.67264 75.0819H5.30951C5.53786 75.0819 5.69718 75.022 5.78609 74.9017C5.87607 74.783 5.92062 74.6101 5.92062 74.385C5.92062 74.1753 5.87607 74.0112 5.78609 73.8926C5.69718 73.7762 5.5411 73.7175 5.3191 73.7175H4.67264V75.0819ZM3.20898 72.2605H5.93402C6.38798 72.2605 6.73695 72.4324 6.98013 72.776C7.22332 73.1184 7.34482 73.5437 7.34482 74.0511C7.34482 74.4764 7.25846 74.8399 7.08518 75.1434C6.96943 75.3468 6.80069 75.5072 6.57851 75.6248C6.91514 75.7484 7.1632 75.961 7.32201 76.2636C7.48083 76.5656 7.56047 76.9446 7.56047 77.4028C7.56047 77.7743 7.50382 78.1083 7.39029 78.4053C7.27672 78.7026 7.12175 78.9371 6.92474 79.1109C6.8025 79.2187 6.61851 79.2965 6.37227 79.3452C6.04467 79.4115 5.8274 79.4438 5.72036 79.4438H3.20898V72.2605Z" fill="#BD8946"/>
<path d="M11.8215 79.4432H10.6014V78.5992C10.4196 78.9449 10.2358 79.1928 10.0504 79.3401C9.86554 79.4868 9.63812 79.561 9.36814 79.561C9.00832 79.561 8.7262 79.396 8.52158 79.0685C8.31697 78.7391 8.21484 78.2346 8.21484 77.5513V74.2389H9.52839V77.0987C9.52839 77.4253 9.56766 77.6569 9.64679 77.7936C9.7261 77.9313 9.83768 78.0002 9.98143 78.0002C10.1379 78.0002 10.2657 77.9085 10.3653 77.7261C10.4649 77.5429 10.5147 77.2145 10.5147 76.7416V74.2389H11.8215V79.4432Z" fill="#BD8946"/>
<path d="M12.6221 74.2395H13.8458V75.0915C13.9631 74.7229 14.085 74.4685 14.2103 74.33C14.3358 74.1914 14.4906 74.1219 14.6746 74.1219C14.8674 74.1219 15.0784 74.2133 15.3076 74.3957L14.9031 75.8166C14.7487 75.7189 14.6264 75.6688 14.5364 75.6688C14.3651 75.6688 14.2324 75.7768 14.1381 75.9931C14.0028 76.2969 13.9356 76.8655 13.9356 77.6983V79.4438H12.6221V74.2395Z" fill="#BD8946"/>
<path d="M18.0944 76.3868C18.0688 75.9993 18 75.7219 17.8892 75.5541C17.778 75.3869 17.6317 75.3026 17.451 75.3026C17.2413 75.3026 17.0743 75.4296 16.9492 75.683C16.8697 75.8404 16.8192 76.0753 16.7975 76.3868H18.0944ZM19.4207 77.3406H16.7942C16.8177 77.6597 16.8751 77.8978 16.9657 78.0545C17.0928 78.2787 17.2585 78.3916 17.4635 78.3916C17.5929 78.3916 17.7159 78.343 17.8323 78.2434C17.9033 78.1819 17.9797 78.0724 18.0617 77.915L19.349 78.0979C19.1516 78.6191 18.9135 78.9935 18.6352 79.2205C18.3564 79.447 17.9567 79.561 17.4357 79.561C16.9832 79.561 16.6276 79.4633 16.3683 79.2686C16.1086 79.075 15.8939 78.7655 15.7235 78.343C15.5531 77.9197 15.4678 77.422 15.4678 76.8509C15.4678 76.0373 15.6385 75.3786 15.9802 74.8759C16.3221 74.3728 16.7938 74.1213 17.3961 74.1213C17.8845 74.1213 18.2705 74.2344 18.553 74.4595C18.8357 74.6846 19.0511 75.0122 19.1989 75.4412C19.347 75.8692 19.4207 76.4275 19.4207 77.1153V77.3406Z" fill="#BD8946"/>
<path d="M22.3396 76.9751C22.1594 77.0728 21.972 77.1595 21.7772 77.2335C21.5113 77.3415 21.3429 77.447 21.2729 77.5513C21.1997 77.6587 21.1635 77.7811 21.1635 77.9188C21.1635 78.0744 21.1993 78.2018 21.2712 78.3013C21.3428 78.4009 21.4485 78.4505 21.5878 78.4505C21.733 78.4505 21.8686 78.3964 21.9939 78.2889C22.1194 78.1819 22.2083 78.0507 22.2607 77.8951C22.3133 77.7413 22.3396 77.5397 22.3396 77.2923V76.9751ZM21.2093 75.9235L19.9611 75.721C20.0082 75.3878 20.0763 75.1265 20.1649 74.9352C20.2536 74.7443 20.3816 74.58 20.5482 74.4396C20.6684 74.3381 20.833 74.2594 21.0429 74.2041C21.2524 74.1492 21.4795 74.1213 21.7232 74.1213C22.1149 74.1213 22.4292 74.1548 22.6668 74.2213C22.9044 74.2885 23.1025 74.428 23.2609 74.6406C23.3717 74.787 23.4596 74.9959 23.5239 75.2655C23.5879 75.5342 23.62 75.7923 23.62 76.0373V78.3357C23.62 78.5802 23.6301 78.7729 23.6504 78.911C23.6707 79.0505 23.7152 79.227 23.7839 79.4432H22.5551C22.5058 79.3095 22.4734 79.2062 22.4587 79.1358C22.4437 79.0657 22.4285 78.9546 22.4133 78.8035C22.2424 79.056 22.0725 79.2362 21.9033 79.3437C21.6721 79.4886 21.4038 79.561 21.0981 79.561C20.6918 79.561 20.3834 79.417 20.1728 79.1293C19.962 78.8424 19.8564 78.4867 19.8564 78.0661C19.8564 77.6709 19.9327 77.346 20.0844 77.0918C20.2364 76.8355 20.5165 76.6466 20.9248 76.5225C21.4145 76.3723 21.7322 76.2671 21.8777 76.2069C22.0229 76.1463 22.1768 76.0675 22.3396 75.9687C22.3396 75.7255 22.3063 75.5532 22.2402 75.4564C22.1741 75.3592 22.0579 75.3091 21.8911 75.3091C21.6775 75.3091 21.5175 75.3614 21.4108 75.4657C21.3276 75.5464 21.2605 75.7002 21.2093 75.9235Z" fill="#BD8946"/>
<path d="M27.9886 79.4432H26.7685V78.5992C26.5861 78.9449 26.4029 79.1928 26.2176 79.3401C26.0324 79.4868 25.8046 79.561 25.5351 79.561C25.1751 79.561 24.8932 79.396 24.6886 79.0685C24.484 78.7391 24.3818 78.2346 24.3818 77.5513V74.2389H25.695V77.0987C25.695 77.4253 25.7347 77.6569 25.814 77.7936C25.8931 77.9313 26.0049 78.0002 26.1485 78.0002C26.3045 78.0002 26.4325 77.9085 26.5322 77.7261C26.6317 77.5429 26.6816 77.2145 26.6816 76.7416V74.2389H27.9886V79.4432Z" fill="#BD8946"/>
<path d="M32.1185 76.8518C32.1185 77.316 32.1795 77.6597 32.303 77.8817C32.4258 78.1041 32.5807 78.2156 32.7666 78.2156C32.9551 78.2156 33.11 78.1059 33.2307 77.8862C33.3515 77.6682 33.4121 77.316 33.4121 76.8319C33.4121 76.3806 33.3508 76.0438 33.2295 75.8238C33.1072 75.6025 32.9564 75.493 32.7766 75.493C32.5861 75.493 32.4289 75.6043 32.3045 75.8285C32.1805 76.0522 32.1185 76.3931 32.1185 76.8518ZM30.8115 76.8554C30.8115 76.0619 30.9868 75.4077 31.3375 74.8931C31.6885 74.3779 32.1623 74.1213 32.7585 74.1213C33.4411 74.1213 33.9563 74.4233 34.3054 75.0279C34.5852 75.5143 34.7255 76.1142 34.7255 76.8263C34.7255 77.6273 34.5517 78.2823 34.2046 78.7938C33.8563 79.3048 33.3756 79.561 32.7623 79.561C32.2149 79.561 31.7721 79.3484 31.4339 78.924C31.0194 78.3973 30.8115 77.7089 30.8115 76.8554Z" fill="#BD8946"/>
<path d="M36.808 74.2395H37.4287V75.7017H36.808V79.4438H35.5011V75.7017H35.0107V74.2395H35.5011V74.0043C35.5011 73.7926 35.516 73.5582 35.5458 73.3029C35.5757 73.0486 35.6319 72.8405 35.7142 72.6783C35.7963 72.5168 35.9116 72.3856 36.0607 72.286C36.2086 72.1865 36.4265 72.1364 36.7124 72.1364C36.9416 72.1364 37.2739 72.1771 37.7092 72.2596L37.564 73.4623C37.4082 73.4234 37.2821 73.4035 37.1859 73.4035C37.0682 73.4035 36.9836 73.4341 36.9329 73.4947C36.8819 73.5553 36.8451 73.6512 36.8239 73.7824C36.8128 73.8543 36.808 74.007 36.808 74.2395Z" fill="#BD8946"/>
<path d="M40.6309 72.2605H42.088V79.4438H40.6309V72.2605Z" fill="#BD8946"/>
<path d="M43.0361 74.2395H44.253V75.0855C44.4352 74.7399 44.619 74.4934 44.8053 74.3443C44.992 74.1961 45.219 74.1219 45.4867 74.1219C45.8483 74.1219 46.1319 74.2855 46.3365 74.6139C46.5412 74.9433 46.6427 75.4502 46.6427 76.1358V79.4438H45.3297V76.579C45.3297 76.2526 45.2902 76.0218 45.2109 75.8852C45.1318 75.7504 45.0199 75.6827 44.8765 75.6827C44.718 75.6827 44.5894 75.7739 44.4907 75.9569C44.3921 76.1404 44.3432 76.4688 44.3432 76.9428V79.4438H43.0361V74.2395Z" fill="#BD8946"/>
<path d="M49.7025 76.8249C49.7025 76.4168 49.646 76.1121 49.5319 75.9108C49.4184 75.7098 49.2742 75.6097 49.1004 75.6097C48.9479 75.6097 48.8204 75.7067 48.7175 75.8992C48.6136 76.092 48.5631 76.415 48.5631 76.8679C48.5631 77.2934 48.615 77.6037 48.7226 77.8019C48.8283 77.9993 48.9599 78.0979 49.1166 78.0979C49.2844 78.0979 49.4239 77.9984 49.5352 77.7992C49.6469 77.5999 49.7025 77.2753 49.7025 76.8249ZM51.013 72.2599V79.4432H49.7897V78.6725C49.6182 79 49.4615 79.2196 49.3201 79.3348C49.1314 79.4859 48.9214 79.561 48.6897 79.561C48.2247 79.561 47.8696 79.2914 47.6239 78.7521C47.3787 78.2129 47.2559 77.5578 47.2559 76.7869C47.2559 75.9244 47.3917 75.2646 47.6633 74.8069C47.9341 74.3502 48.278 74.1213 48.6961 74.1213C48.8996 74.1213 49.0851 74.1736 49.2506 74.2778C49.4174 74.3826 49.5644 74.5391 49.6933 74.7481V72.2599H51.013Z" fill="#BD8946"/>
<path d="M51.8535 74.2395H53.1603V79.4438H51.8535V74.2395ZM51.8535 72.2605H53.1603V73.6188H51.8535V72.2605Z" fill="#BD8946"/>
<path d="M56.3139 76.9751C56.134 77.0728 55.9463 77.1595 55.7511 77.2335C55.4855 77.3415 55.3172 77.447 55.2472 77.5513C55.1745 77.6587 55.1374 77.7811 55.1374 77.9188C55.1374 78.0744 55.174 78.2018 55.2454 78.3013C55.3172 78.4009 55.4229 78.4505 55.562 78.4505C55.708 78.4505 55.8424 78.3964 55.9681 78.2889C56.0942 78.1819 56.1822 78.0507 56.2355 77.8951C56.2879 77.7413 56.3139 77.5397 56.3139 77.2923V76.9751ZM55.1833 75.9235L53.9358 75.721C53.9826 75.3878 54.0508 75.1265 54.1389 74.9352C54.2279 74.7443 54.3563 74.58 54.5227 74.4396C54.6428 74.3381 54.8078 74.2594 55.0168 74.2041C55.2268 74.1492 55.454 74.1213 55.6974 74.1213C56.0891 74.1213 56.4038 74.1548 56.6416 74.2213C56.878 74.2885 57.0765 74.428 57.235 74.6406C57.3462 74.787 57.4339 74.9959 57.4978 75.2655C57.5627 75.5342 57.5942 75.7923 57.5942 76.0373V78.3357C57.5942 78.5802 57.6044 78.7729 57.6248 78.911C57.6452 79.0505 57.6897 79.227 57.7579 79.4432H56.5294C56.4798 79.3095 56.4479 79.2062 56.433 79.1358C56.4173 79.0657 56.4029 78.9546 56.3881 78.8035C56.217 79.056 56.0464 79.2362 55.8777 79.3437C55.6464 79.4886 55.3789 79.561 55.0725 79.561C54.6664 79.561 54.3577 79.417 54.1472 79.1293C53.9363 78.8424 53.8311 78.4867 53.8311 78.0661C53.8311 77.6709 53.9066 77.346 54.0587 77.0918C54.2107 76.8355 54.4907 76.6466 54.8991 76.5225C55.3886 76.3723 55.7062 76.2671 55.8517 76.2069C55.9968 76.1463 56.1512 76.0675 56.3139 75.9687C56.3139 75.7255 56.2801 75.5532 56.2142 75.4564C56.1479 75.3592 56.032 75.3091 55.8656 75.3091C55.6524 75.3091 55.492 75.3614 55.3854 75.4657C55.3019 75.5464 55.2347 75.7002 55.1833 75.9235Z" fill="#BD8946"/>
<path d="M58.3711 74.2395H59.5879V75.0855C59.7706 74.7399 59.9542 74.4934 60.1405 74.3443C60.3264 74.1961 60.5535 74.1219 60.8215 74.1219C61.1835 74.1219 61.4668 74.2855 61.6707 74.6139C61.8761 74.9433 61.9776 75.4502 61.9776 76.1358V79.4438H60.6643V76.579C60.6643 76.2526 60.6245 76.0218 60.5457 75.8852C60.4664 75.7504 60.3547 75.6827 60.2114 75.6827C60.0529 75.6827 59.925 75.7739 59.8257 75.9569C59.727 76.1404 59.6779 76.4688 59.6779 76.9428V79.4438H58.3711V74.2395Z" fill="#BD8946"/>
<path d="M64.7803 77.0685L66.1659 76.9356C66.196 77.2793 66.2563 77.5406 66.3494 77.7199C66.4987 78.0113 66.7138 78.1571 66.9924 78.1571C67.2005 78.1571 67.3609 78.0826 67.4736 77.9344C67.5857 77.7853 67.6423 77.6124 67.6423 77.4168C67.6423 77.2306 67.5885 77.0639 67.4805 76.9166C67.373 76.7688 67.1236 76.6307 66.7342 76.5001C66.0954 76.2814 65.6406 75.9901 65.3685 75.6273C65.0941 75.2641 64.9569 74.8017 64.9569 74.2398C64.9569 73.8701 65.0274 73.5218 65.1669 73.1924C65.3073 72.8648 65.5178 72.6068 65.7996 72.4179C66.0815 72.2306 66.4672 72.1361 66.9572 72.1361C67.5589 72.1361 68.0173 72.3075 68.333 72.6475C68.6496 72.9884 68.8369 73.5306 68.8967 74.2746L67.5246 74.3954C67.4879 74.0744 67.4119 73.841 67.2951 73.6946C67.1792 73.5485 67.0183 73.4754 66.8125 73.4754C66.6433 73.4754 66.5168 73.5297 66.431 73.6394C66.3453 73.7487 66.3026 73.8817 66.3026 74.0393C66.3026 74.1531 66.3383 74.2565 66.4092 74.3477C66.4774 74.4427 66.6401 74.5303 66.8978 74.6119C67.5338 74.8216 67.9895 75.0333 68.2649 75.2469C68.5402 75.4615 68.74 75.7264 68.8661 76.0433C68.9908 76.3602 69.0538 76.7156 69.0538 77.1074C69.0538 77.5679 68.9704 77.9932 68.8031 78.3813C68.6366 78.7697 68.403 79.0658 68.1031 79.2663C67.8027 79.4673 67.424 79.5674 66.9687 79.5674C66.1672 79.5674 65.6128 79.3325 65.3041 78.8618C64.9954 78.3911 64.8211 77.7939 64.7803 77.0685Z" fill="#BD8946"/>
<path d="M71.2634 72.2599V74.2389H71.9815V75.7011H71.2634V77.5438C71.2634 77.7659 71.2773 77.9123 71.3047 77.9839C71.3473 78.0943 71.4215 78.1504 71.5285 78.1504C71.624 78.1504 71.7589 78.1077 71.9314 78.023L72.0278 79.3989C71.7052 79.5067 71.4043 79.561 71.1253 79.561C70.8003 79.561 70.5616 79.4966 70.4081 79.3692C70.2538 79.2433 70.1402 79.0495 70.0669 78.7901C69.9928 78.5312 69.9561 78.1104 69.9561 77.5304V75.7011H69.4727V74.2389H69.9561V73.2841L71.2634 72.2599Z" fill="#BD8946"/>
<path d="M74.9306 76.9751C74.7507 77.0728 74.563 77.1595 74.3683 77.2335C74.1022 77.3415 73.9334 77.447 73.8634 77.5513C73.7902 77.6587 73.7545 77.7811 73.7545 77.9188C73.7545 78.0744 73.7902 78.2018 73.8621 78.3013C73.9334 78.4009 74.0391 78.4505 74.1782 78.4505C74.3242 78.4505 74.4596 78.3964 74.5848 78.2889C74.7095 78.1819 74.7989 78.0507 74.8518 77.8951C74.9041 77.7413 74.9306 77.5397 74.9306 77.2923V76.9751ZM73.7999 75.9235L72.552 75.721C72.5989 75.3878 72.667 75.1265 72.756 74.9352C72.8445 74.7443 72.9725 74.58 73.1394 74.4396C73.259 74.3381 73.4245 74.2594 73.6335 74.2041C73.8431 74.1492 74.0702 74.1213 74.3145 74.1213C74.7053 74.1213 75.02 74.1548 75.2578 74.2213C75.4956 74.2885 75.6931 74.428 75.8517 74.6406C75.9625 74.787 76.051 74.9959 76.1145 75.2655C76.1789 75.5342 76.2109 75.7923 76.2109 76.0373V78.3357C76.2109 78.5802 76.2207 78.7729 76.2411 78.911C76.2615 79.0505 76.306 79.227 76.3741 79.4432H75.1461C75.097 79.3095 75.0641 79.2062 75.0497 79.1358C75.0339 79.0657 75.0191 78.9546 75.0047 78.8035C74.8332 79.056 74.6636 79.2362 74.4939 79.3437C74.263 79.4886 73.9951 79.561 73.6887 79.561C73.2831 79.561 72.9743 79.417 72.7634 79.1293C72.553 78.8424 72.4473 78.4867 72.4473 78.0661C72.4473 77.6709 72.5233 77.346 72.6753 77.0918C72.8274 76.8355 73.1074 76.6466 73.5158 76.5225C74.0058 76.3723 74.3224 76.2671 74.4679 76.2069C74.6135 76.1463 74.7674 76.0675 74.9306 75.9687C74.9306 75.7255 74.8972 75.5532 74.8304 75.4564C74.7641 75.3592 74.6483 75.3091 74.4818 75.3091C74.2686 75.3091 74.1087 75.3614 74.0016 75.4657C73.9181 75.5464 73.8514 75.7002 73.7999 75.9235Z" fill="#BD8946"/>
<path d="M76.9863 74.2395H78.2032V75.0855C78.3854 74.7399 78.5689 74.4934 78.7553 74.3443C78.9416 74.1961 79.1683 74.1219 79.4367 74.1219C79.7983 74.1219 80.0815 74.2855 80.286 74.6139C80.4909 74.9433 80.5933 75.4502 80.5933 76.1358V79.4438H79.28V76.579C79.28 76.2526 79.2397 76.0218 79.1604 75.8852C79.0812 75.7504 78.9704 75.6827 78.8262 75.6827C78.6677 75.6827 78.5397 75.7739 78.441 75.9569C78.3422 76.1404 78.2931 76.4688 78.2931 76.9428V79.4438H76.9863V74.2395Z" fill="#BD8946"/>
<path d="M83.6518 76.8249C83.6518 76.4168 83.5947 76.1121 83.4812 75.9108C83.3671 75.7098 83.223 75.6097 83.0501 75.6097C82.8971 75.6097 82.7691 75.7067 82.6662 75.8992C82.5633 76.092 82.5119 76.415 82.5119 76.8679C82.5119 77.2934 82.5652 77.6037 82.6709 77.8019C82.7775 77.9993 82.9087 78.0979 83.0658 78.0979C83.2332 78.0979 83.3727 77.9984 83.4844 77.7992C83.5957 77.5999 83.6518 77.2753 83.6518 76.8249ZM84.9618 72.2599V79.4432H83.7384V78.6725C83.5674 79 83.4112 79.2196 83.2689 79.3348C83.0802 79.4859 82.8707 79.561 82.6393 79.561C82.1739 79.561 81.8184 79.2914 81.5736 78.7521C81.3279 78.2129 81.2051 77.5578 81.2051 76.7869C81.2051 75.9244 81.3404 75.2646 81.6116 74.8069C81.8828 74.3502 82.2277 74.1213 82.6454 74.1213C82.8493 74.1213 83.0334 74.1736 83.2002 74.2778C83.3662 74.3826 83.5136 74.5391 83.6425 74.7481V72.2599H84.9618Z" fill="#BD8946"/>
<path d="M88.0761 76.9751C87.8963 77.0728 87.7085 77.1595 87.5143 77.2335C87.2482 77.3415 87.0799 77.447 87.0095 77.5513C86.9362 77.6587 86.9001 77.7811 86.9001 77.9188C86.9001 78.0744 86.9362 78.2018 87.0081 78.3013C87.0799 78.4009 87.1852 78.4505 87.3242 78.4505C87.4707 78.4505 87.6061 78.3964 87.7308 78.2889C87.8559 78.1819 87.9449 78.0507 87.9978 77.8951C88.0506 77.7413 88.0761 77.5397 88.0761 77.2923V76.9751ZM86.946 75.9235L85.6981 75.721C85.7453 75.3878 85.813 75.1265 85.9025 74.9352C85.9906 74.7443 86.119 74.58 86.2854 74.4396C86.4054 74.3381 86.57 74.2594 86.7791 74.2041C86.9891 74.1492 87.2167 74.1213 87.4605 74.1213C87.8518 74.1213 88.1665 74.1548 88.4039 74.2213C88.6417 74.2885 88.8391 74.428 88.9972 74.6406C89.1089 74.787 89.197 74.9959 89.2605 75.2655C89.3254 75.5342 89.3569 75.7923 89.3569 76.0373V78.3357C89.3569 78.5802 89.3667 78.7729 89.3871 78.911C89.4075 79.0505 89.452 79.227 89.5201 79.4432H88.2921C88.243 79.3095 88.2101 79.2062 88.1957 79.1358C88.18 79.0657 88.1656 78.9546 88.1508 78.8035C87.9792 79.056 87.8091 79.2362 87.6404 79.3437C87.4091 79.4886 87.1416 79.561 86.8347 79.561C86.4286 79.561 86.1199 79.417 85.9094 79.1293C85.6985 78.8424 85.5938 78.4867 85.5938 78.0661C85.5938 77.6709 85.6693 77.346 85.8214 77.0918C85.9734 76.8355 86.2534 76.6466 86.6618 76.5225C87.1518 76.3723 87.4689 76.2671 87.6139 76.2069C87.7595 76.1463 87.9139 76.0675 88.0761 75.9687C88.0761 75.7255 88.0427 75.5532 87.9765 75.4564C87.9106 75.3592 87.7947 75.3091 87.6279 75.3091C87.4146 75.3091 87.2547 75.3614 87.1476 75.4657C87.0646 75.5464 86.9974 75.7002 86.946 75.9235Z" fill="#BD8946"/>
<path d="M90.1445 74.2395H91.3683V75.0915C91.4861 74.7229 91.6075 74.4685 91.7327 74.33C91.8579 74.1914 92.0122 74.1219 92.1972 74.1219C92.39 74.1219 92.6005 74.2133 92.8299 74.3957L92.4248 75.8166C92.2709 75.7189 92.149 75.6688 92.059 75.6688C91.8875 75.6688 91.7545 75.7768 91.6608 75.9931C91.5259 76.2969 91.4578 76.8655 91.4578 77.6983V79.4438H90.1445V74.2395Z" fill="#BD8946"/>
<path d="M95.4955 76.8249C95.4955 76.4168 95.4385 76.1121 95.3249 75.9108C95.2113 75.7098 95.0667 75.6097 94.8929 75.6097C94.7408 75.6097 94.6129 75.7067 94.51 75.8992C94.4066 76.092 94.3556 76.415 94.3556 76.8679C94.3556 77.2934 94.4085 77.6037 94.5151 77.8019C94.6208 77.9993 94.7529 78.0979 94.9091 78.0979C95.0769 78.0979 95.2164 77.9984 95.3282 77.7992C95.4394 77.5999 95.4955 77.2753 95.4955 76.8249ZM96.8055 72.2599V79.4432H95.5827V78.6725C95.4107 79 95.254 79.2196 95.1126 79.3348C94.9239 79.4859 94.7144 79.561 94.4826 79.561C94.0177 79.561 93.6621 79.2914 93.4174 78.7521C93.1712 78.2129 93.0488 77.5578 93.0488 76.7869C93.0488 75.9244 93.1847 75.2646 93.4558 74.8069C93.727 74.3502 94.0714 74.1213 94.4896 74.1213C94.6931 74.1213 94.8776 74.1736 95.044 74.2778C95.2099 74.3826 95.3569 74.5391 95.4862 74.7481V72.2599H96.8055Z" fill="#BD8946"/>
<path d="M97.3652 78.0002L98.659 77.8102C98.7128 78.0471 98.7884 78.2156 98.8857 78.3176C98.9817 78.419 99.1115 78.4695 99.2728 78.4695C99.4485 78.4695 99.5862 78.4125 99.683 78.2986C99.7581 78.2138 99.7957 78.1077 99.7957 77.9803C99.7957 77.8363 99.7461 77.7261 99.6464 77.6472C99.5755 77.5922 99.3878 77.523 99.0827 77.4411C98.6289 77.3196 98.3137 77.2085 98.1371 77.1052C97.9605 77.0019 97.8112 76.829 97.6902 76.5849C97.5697 76.3399 97.5094 76.0601 97.5094 75.7469C97.5094 75.4041 97.5743 75.109 97.7055 74.8601C97.8358 74.6124 98.0156 74.4271 98.2441 74.3048C98.4736 74.1825 98.781 74.1213 99.1662 74.1213C99.5732 74.1213 99.8726 74.1681 100.066 74.2632C100.26 74.358 100.421 74.5049 100.551 74.7036C100.681 74.9028 100.788 75.1725 100.874 75.512L99.6325 75.6946C99.601 75.5292 99.5468 75.4068 99.4726 75.3281C99.3701 75.2248 99.2464 75.1725 99.1008 75.1725C98.9539 75.1725 98.8472 75.2123 98.7791 75.2928C98.7123 75.3726 98.6785 75.4695 98.6785 75.5844C98.6785 75.7109 98.7212 75.8077 98.8069 75.873C98.8927 75.9383 99.079 75.9966 99.3664 76.0494C99.8008 76.1254 100.124 76.2291 100.336 76.363C100.548 76.4973 100.711 76.6873 100.822 76.9353C100.935 77.1839 100.992 77.4564 100.992 77.7528C100.992 78.0534 100.932 78.3459 100.814 78.6298C100.695 78.9137 100.508 79.1403 100.251 79.3086C99.995 79.4767 99.6464 79.561 99.2056 79.561C98.5821 79.561 98.1389 79.4253 97.8742 79.1537C97.61 78.8842 97.4403 78.4988 97.3652 78.0002Z" fill="#BD8946"/>
<path d="M18.2874 61.7518H16.4395V63.54H18.2874V61.7518ZM19.4762 61.7518V66.5239H18.2874V63.9921H16.4395V64.6962L16.4525 64.8066C16.4525 64.8194 16.4435 64.8399 16.4262 64.8663L16.3231 64.926L16.1552 64.9468L15.6382 64.9367C15.5522 64.9367 15.4443 64.9034 15.3148 64.8357C15.2891 64.8236 15.2246 64.7742 15.1212 64.6861C14.9058 64.518 14.7464 64.3841 14.6432 64.2834C14.4621 64.1037 14.3589 63.949 14.333 63.8222L14.3716 63.6901C14.4233 63.6512 14.4706 63.6215 14.5137 63.6007L14.5787 63.5807L14.7076 63.5507L15.2634 63.54V61.7518H13.6221V61.3375H20.4455V61.7518H19.4762Z" fill="#BD8946"/>
<path d="M22.4466 61.7518V66.5239H21.2448V61.7518H19.9785V61.3375H23.7004V61.7518H22.4466Z" fill="#BD8946"/>
<path d="M29.2722 61.7518V66.5239H28.0696V63.54H26.17V64.404L26.1573 64.5453C26.1573 64.5652 26.1488 64.5893 26.1316 64.6157L26.0278 64.6861L25.8857 64.706L25.3687 64.6962C25.3172 64.6962 25.2225 64.6555 25.0844 64.575L24.6065 64.1836C24.4687 64.0699 24.3307 63.9226 24.1931 63.7405C24.0982 63.6215 24.0464 63.5306 24.0378 63.47C24.0378 63.3361 24.1069 63.2393 24.2446 63.179L24.3608 63.1481L24.5162 63.1383L28.0696 63.1291V61.7518H23.2754V61.3375H30.3313V61.7518H29.2722Z" fill="#BD8946"/>
<path d="M35.152 61.7518V62.9174L35.4104 62.8271L35.669 62.7662L35.9273 62.7474L36.4443 62.7362C36.6765 62.7302 36.9094 62.7662 37.1418 62.8479C37.5987 63.0008 37.9087 63.2286 38.0722 63.5306C38.1673 63.7043 38.2144 63.8754 38.2144 64.0431C38.2144 64.4322 37.9908 64.8399 37.5426 65.2679L37.2583 65.5404L36.8708 65.8707L36.3538 65.8609L35.7979 65.5404L35.8752 65.5098C35.9533 65.4899 36.1296 65.3361 36.4054 65.0484C36.7929 64.6383 36.987 64.2908 36.987 64.0024C36.987 63.8754 36.9438 63.7118 36.8581 63.5098C36.754 63.3969 36.6462 63.3129 36.5345 63.2592L36.2763 63.179C36.0438 63.2125 35.8024 63.35 35.5525 63.5905C35.449 63.691 35.3455 63.8258 35.2425 63.9921C35.1817 64.1325 35.152 64.2608 35.152 64.3743V66.5239H33.963V65.299C33.8426 65.3397 33.7305 65.3685 33.6267 65.3902L33.2782 65.4092L32.7612 65.3996C32.2614 65.3922 31.831 65.2652 31.4692 65.0174C31.2534 64.8765 31.1049 64.7279 31.0232 64.5703C30.941 64.4132 30.9003 64.2311 30.9003 64.0232C30.9003 63.6215 31.0727 63.299 31.417 63.0587C31.6928 62.865 31.9943 62.74 32.3217 62.6866C32.4253 62.6667 32.5457 62.6569 32.6837 62.6569L33.2009 62.6459H33.4073C33.4846 62.6732 33.5624 62.6904 33.6398 62.6967C33.7602 62.7237 33.8467 62.7474 33.8984 62.7662V63.1888H33.3814L33.2519 63.1481L33.1877 63.1193L33.1098 63.0985C33.0926 63.0911 33.0672 63.0855 33.0325 63.0786C32.8342 63.1119 32.645 63.2096 32.4637 63.3699C32.2572 63.5507 32.1537 63.785 32.1537 64.0728C32.1537 64.3345 32.2484 64.5578 32.438 64.7458L32.6837 64.9168C32.7784 64.9575 32.8816 64.9877 32.9939 65.0077C33.1058 64.9943 33.1922 64.9705 33.2519 64.9367L33.5109 64.7968L33.6787 64.6656C33.8679 64.518 33.963 64.3813 33.963 64.2539V61.7518H30.0215V61.3375H38.8735V61.7518H35.152Z" fill="#BD8946"/>
<path d="M39.3008 65.7227V65.0367H40.7222V65.7227H39.3008ZM39.3008 62.837V62.1657H40.7222V62.837H39.3008Z" fill="#BD8946"/>
<path d="M48.3461 61.7518H46.3422V63.6812C46.3422 64.0033 46.471 64.2403 46.7301 64.3942L46.9499 64.5254L47.2081 64.5958C47.2345 64.5893 47.2683 64.5804 47.3119 64.5703C47.3546 64.5605 47.3842 64.556 47.4023 64.556C47.4885 64.5281 47.5483 64.5082 47.5831 64.4943C47.6781 64.4545 47.807 64.3813 47.9715 64.2738L48.1394 64.1325L48.3461 63.9235V61.7518ZM49.5477 61.7518V66.5239H48.3461V64.8066C48.2251 64.8737 48.0791 64.927 47.9067 64.9667L47.4793 65.0077L46.9633 64.9973C46.42 64.9831 45.9894 64.8529 45.6704 64.6059C45.5925 64.5453 45.4676 64.3942 45.295 64.1542C45.2093 63.9796 45.1661 63.7984 45.1661 63.6113V61.7518H44.1582V61.3375H50.6078V61.7518H49.5477Z" fill="#BD8946"/>
<path d="M55.9013 64.8846L55.6037 65.0565L55.1777 65.2463L54.7647 65.3761L54.3382 65.4664L53.9117 65.4883L53.3948 65.477C52.9123 65.471 52.5006 65.4001 52.1608 65.2662C51.8201 65.1314 51.4901 64.9188 51.1716 64.6242C51.0335 64.4973 50.9305 64.3797 50.8615 64.2731L50.5254 63.751L51.0427 63.7398C51.1976 63.8078 51.3227 63.8478 51.4173 63.8612L51.8438 63.9228C52.2573 63.9228 52.6188 63.8144 52.9294 63.6008C53.2395 63.3855 53.3948 63.1075 53.3948 62.7655C53.3948 62.5121 53.278 62.2805 53.0462 62.0726C52.9596 61.9993 52.8645 61.9396 52.7611 61.8914L52.4385 61.7908L52.2573 61.8525L52.0894 61.9312C52.012 61.9794 51.9555 62.0391 51.9212 62.1133L51.8702 62.3339C51.8702 62.5418 52.0074 62.6896 52.2832 62.7762L52.4515 62.8162L52.6967 62.8471V63.2687H52.012C51.917 63.2687 51.8308 63.2649 51.7534 63.2584C51.6755 63.2515 51.5726 63.2279 51.4437 63.188C51.1938 63.1075 51.0056 62.9982 50.8809 62.8614C50.7558 62.7239 50.6941 62.5413 50.6941 62.3138C50.6941 62.1124 50.7924 61.9274 50.9913 61.7602C51.1632 61.6064 51.3834 61.4962 51.6504 61.4291C51.8224 61.3884 51.999 61.3641 52.1798 61.3578L52.6967 61.3475C52.9294 61.3415 53.17 61.3813 53.4199 61.4689C53.8857 61.5829 54.2214 61.8335 54.4286 62.2226C54.5236 62.4038 54.5709 62.5845 54.5709 62.7646C54.5709 63.2344 54.3655 63.6037 53.9567 63.8713C53.5478 64.1392 52.9517 64.2731 52.1673 64.2731L52.0255 64.2628C52.0765 64.3643 52.1673 64.4649 52.2967 64.5644L52.7486 64.8258L53.1751 64.987C53.2178 64.9995 53.2891 65.0138 53.3883 65.0268C53.4871 65.0402 53.558 65.0536 53.6016 65.0666C54.1959 65.0194 54.7039 64.8187 55.1262 64.4649L55.4238 64.2132L55.746 63.8413L56.2629 63.8315V64.6242L55.9013 64.8846Z" fill="#BD8946"/>
<path d="M57.3645 61.7518V66.5239H56.1634V61.7518H54.8965V61.3375H58.6184V61.7518H57.3645Z" fill="#BD8946"/>
<path d="M62.3538 61.7518H60.3762V63.521C60.3762 63.8486 60.5056 64.0865 60.7642 64.2329L60.971 64.3553L61.2037 64.4248C61.333 64.404 61.4406 64.3715 61.5263 64.3234L61.9013 64.1237L62.0956 63.9921L62.3538 63.7916V61.7518ZM63.5813 61.7518V66.5239H62.3802V64.6962L59.666 66.5239H59.1492L58.6448 66.1727L60.8161 64.8357C60.316 64.8357 59.9372 64.7152 59.6781 64.4743C59.4199 64.234 59.2702 63.9921 59.2266 63.7518C59.2094 63.6446 59.2002 63.5436 59.2002 63.4496V61.7518H58.1924V61.3375H64.4602V61.7518H63.5813Z" fill="#BD8946"/>
<path d="M69.9272 61.7519V63.1084H67.5496C67.3262 63.1084 67.1106 63.1889 66.9034 63.3502L66.6971 63.6008C66.6535 63.6813 66.6322 63.7718 66.6322 63.8732C66.6146 64.5226 66.9896 64.9369 67.7564 65.118L68.0146 65.1786L68.3641 65.2187L68.3506 65.1682V65.1282C68.3506 65.0675 68.3418 65.0176 68.3247 64.9767L68.3117 64.8665C68.3117 64.786 68.3205 64.7127 68.3377 64.647L68.454 64.4449C68.4888 64.3985 68.5579 64.3554 68.6612 64.3147C68.7641 64.274 68.8759 64.2541 68.9968 64.2541L69.5137 64.2447C69.5916 64.2447 69.669 64.2637 69.7469 64.3046C69.9013 64.3435 70.0181 64.4449 70.0955 64.6061L70.1469 64.8077C70.1469 65.0277 70.0654 65.1959 69.9017 65.3089L69.7983 65.3797L69.6431 65.4589L69.9666 66.0131L70.1859 66.3044L70.4056 66.5352L70.4955 66.6159L70.5994 66.7261H69.2296L68.881 66.1928L68.5194 65.5994H69.0353L68.9324 65.6211H68.842L68.3247 65.6104C68.1179 65.6104 67.8078 65.5929 67.3948 65.5605C67.1445 65.5261 66.8946 65.4637 66.6447 65.3687C66.2312 65.2157 65.9318 65.0176 65.7473 64.7762C65.5619 64.5353 65.4687 64.2369 65.4687 63.882C65.4687 63.5735 65.5934 63.2983 65.8432 63.0533C66.0931 62.8091 66.3995 62.6868 66.7616 62.6868L68.6747 62.677V61.7519H64.332V61.3377H71.336V61.7519H69.9272Z" fill="#BD8946"/>
<path d="M74.7011 62.2849C74.6839 62.2377 74.6496 62.1844 74.5982 62.1237C74.4512 61.9491 74.2445 61.8295 73.9775 61.7629L73.7967 61.8235C73.7276 61.8416 73.6762 61.8758 73.6414 61.923C73.5723 61.9773 73.5167 62.043 73.4736 62.1237L73.4221 62.3554C73.4221 62.5633 73.4996 62.7236 73.6548 62.8376L73.8222 62.9571L74.0294 63.0179L74.314 62.9274L74.5718 62.7661L74.6756 62.6559L74.8179 62.4956L74.7011 62.2849ZM75.4377 61.7517C75.5587 61.8461 75.6496 61.9366 75.7089 62.0231L75.9166 62.3145L76.0325 62.6268L76.0839 62.9478C76.0839 63.1896 76.0241 63.4176 75.9031 63.6321C75.6101 64.1476 75.1878 64.4924 74.6367 64.6661C74.3432 64.7614 74.0377 64.8074 73.7193 64.8074L75.8642 66.1943L75.4127 66.5474H74.8958L71.7936 64.5054L72.2461 64.1541H72.763L73.1765 64.4155L73.3183 64.4039C73.3535 64.4039 73.4008 64.3983 73.4606 64.384C73.5904 64.3572 73.7327 64.3145 73.8876 64.2538L74.2876 64.043L74.5982 63.7915L74.8049 63.5209L74.8179 63.4811L74.843 63.4402V63.3907C74.8522 63.3698 74.861 63.3499 74.8694 63.33L74.5338 63.4402L74.2232 63.4699L73.7063 63.4592C73.2668 63.4538 72.9224 63.3568 72.6726 63.1688C72.5173 63.0548 72.4014 62.9306 72.3235 62.7958C72.2461 62.6619 72.2076 62.5318 72.2076 62.4044C72.2076 62.1825 72.3277 61.967 72.5696 61.7591L71.083 61.7502V61.3374H76.3685V61.7517H75.4377Z" fill="#BD8946"/>
<path d="M78.5959 61.7518V66.5239H77.3944V61.7518H76.1279V61.3375H79.8499V61.7518H78.5959Z" fill="#BD8946"/>
<path d="M79.0427 59.3801L78.9518 59.3516L78.7451 59.3107C78.5726 59.3385 78.4438 59.395 78.358 59.4808C78.2801 59.5414 78.2199 59.6138 78.1768 59.697C78.1332 59.7813 78.1123 59.8834 78.1123 60.0037C78.1123 60.171 78.1489 60.3313 78.2213 60.486C78.2954 60.6389 78.396 60.7862 78.5254 60.9276L78.7066 61.1174L78.9518 61.3481L78.4224 61.3404H77.944C77.9269 61.3329 77.9032 61.3232 77.8727 61.306C77.8425 61.2884 77.8068 61.2522 77.7633 61.1999L77.4661 60.8382C77.3887 60.7093 77.2765 60.5258 77.1296 60.2841C77.0521 60.1044 77.0137 59.9366 77.0137 59.7824C77.0137 59.5141 77.149 59.2982 77.4202 59.1342C77.6923 58.9706 78.0256 58.8845 78.4224 58.8771L78.9263 58.8675H79.0816C79.1331 58.8675 79.2105 58.8809 79.3143 58.9073L79.6499 58.9976V59.4021H79.1331L79.0427 59.3801Z" fill="#BD8946"/>
<path d="M85.0077 61.7518V62.9174L85.2659 62.8271L85.5245 62.7662L85.7827 62.7474L86.2996 62.7362C86.5323 62.7302 86.7645 62.7662 86.9973 62.8479C87.4539 63.0008 87.764 63.2286 87.9286 63.5306C88.0231 63.7043 88.0704 63.8754 88.0704 64.0431C88.0704 64.4322 87.846 64.8399 87.3982 65.2679L87.1141 65.5404L86.7261 65.8707L86.2092 65.8609L85.6539 65.5404L85.7317 65.5098C85.8092 65.4899 85.9853 65.3361 86.2611 65.0484C86.6487 64.6383 86.8429 64.2908 86.8429 64.0024C86.8429 63.8754 86.7993 63.7118 86.7131 63.5098C86.6102 63.3969 86.5026 63.3129 86.3905 63.2592L86.1318 63.179C85.8986 63.2125 85.6576 63.35 85.4077 63.5905C85.3043 63.691 85.2014 63.8258 85.0976 63.9921C85.0378 64.1325 85.0077 64.2608 85.0077 64.3743V66.5239H83.8186V65.299C83.6976 65.3397 83.5859 65.3685 83.483 65.3902L83.1335 65.4092L82.6171 65.3996C82.1173 65.3922 81.6862 65.2652 81.3242 65.0174C81.1096 64.8765 80.9608 64.7279 80.8782 64.5703C80.7967 64.4132 80.7559 64.2311 80.7559 64.0232C80.7559 63.6215 80.9278 63.299 81.2727 63.0587C81.5481 62.865 81.8503 62.74 82.1781 62.6866C82.2805 62.6667 82.4015 62.6569 82.5387 62.6569L83.0565 62.6459H83.2628C83.3407 62.6732 83.4172 62.6904 83.4951 62.6967C83.616 62.7237 83.7027 62.7474 83.7542 62.7662V63.1888H83.2373L83.108 63.1481L83.0435 63.1193L82.9661 63.0985C82.949 63.0911 82.9226 63.0855 82.8883 63.0786C82.6898 63.1119 82.5003 63.2096 82.3199 63.3699C82.1122 63.5507 82.0093 63.785 82.0093 64.0728C82.0093 64.3345 82.1039 64.5578 82.294 64.7458L82.5387 64.9168C82.6333 64.9575 82.7376 64.9877 82.8493 65.0077C82.961 64.9943 83.0477 64.9705 83.108 64.9367L83.3662 64.7968L83.534 64.6656C83.7241 64.518 83.8186 64.3813 83.8186 64.2539V61.7518H79.877V61.3375H88.7296V61.7518H85.0077Z" fill="#BD8946"/>
<path d="M89.1562 65.7227V65.0367H90.5785V65.7227H89.1562ZM89.1562 62.837V62.1657H90.5785V62.837H89.1562Z" fill="#BD8946"/>
</g>
<defs>
<clipPath id="clip0_2047_24393">
<rect width="104" height="80" fill="white" transform="translate(0.0996094)"/>
</clipPath>
</defs>
</svg>
