<svg width="81" height="80" viewBox="0 0 81 80" fill="none" xmlns="http://www.w3.org/2000/svg">
<rect width="80" height="80" transform="translate(0.458008)" fill="white"/>
<path d="M60.3426 11.5005H20.9908C19.8849 11.5005 18.8469 12.034 18.2033 12.9333L7.99646 27.195C7.06648 28.4944 7.15772 30.264 8.21639 31.4609L38.0987 65.2449C39.4649 66.7894 41.8757 66.7869 43.2386 65.2395L73.0003 31.4489C74.05 30.257 74.1435 28.5001 73.2262 27.2035L63.1409 12.9485C62.4984 12.0404 61.4551 11.5005 60.3426 11.5005Z" fill="url(#paint0_linear_2047_24439)"/>
<mask id="mask0_2047_24439" style="mask-type:alpha" maskUnits="userSpaceOnUse" x="7" y="11" width="67" height="56">
<path d="M60.3426 11.5005H20.9908C19.8849 11.5005 18.8469 12.034 18.2033 12.9333L7.99646 27.195C7.06648 28.4944 7.15772 30.264 8.21639 31.4609L38.0987 65.2449C39.4649 66.7894 41.8757 66.7869 43.2386 65.2395L73.0003 31.4489C74.05 30.257 74.1435 28.5001 73.2262 27.2035L63.1409 12.9485C62.4984 12.0404 61.4551 11.5005 60.3426 11.5005Z" fill="url(#paint1_linear_2047_24439)"/>
</mask>
<g mask="url(#mask0_2047_24439)">
<path d="M7.43457 29.6025C18.2449 29.6896 39.8656 37.5216 39.8656 68.1536" stroke="white" stroke-width="2.48086" stroke-linecap="round" stroke-linejoin="round"/>
<path d="M18.7334 11.5005C30.1384 14.7897 43.3043 22.9157 50.4307 39.4919" stroke="white" stroke-width="2.48086" stroke-linecap="round" stroke-linejoin="round"/>
<path d="M62.4648 11.5005C51.0071 14.7897 37.7802 22.9157 30.6208 39.4919" stroke="white" stroke-width="2.48086" stroke-linecap="round" stroke-linejoin="round"/>
<path d="M73.9102 29.6025C63.0509 29.6896 41.3324 37.5216 41.3324 68.1536" stroke="white" stroke-width="2.48086" stroke-linecap="round" stroke-linejoin="round"/>
</g>
<defs>
<linearGradient id="paint0_linear_2047_24439" x1="21.6164" y1="42.5792" x2="60.8182" y2="42.5792" gradientUnits="userSpaceOnUse">
<stop stop-color="#F6CF9B"/>
<stop offset="1" stop-color="#A87026"/>
</linearGradient>
<linearGradient id="paint1_linear_2047_24439" x1="21.6164" y1="42.5792" x2="60.8182" y2="42.5792" gradientUnits="userSpaceOnUse">
<stop stop-color="#F6CF9B"/>
<stop offset="1" stop-color="#A87026"/>
</linearGradient>
</defs>
</svg>
