<svg width="81" height="80" viewBox="0 0 81 80" fill="none" xmlns="http://www.w3.org/2000/svg">
<rect width="80" height="80" transform="translate(0.428711)" fill="white"/>
<path d="M68.8053 10.6665H12.4524C10.1354 10.6665 8.38177 12.761 8.78901 15.0419L13.3777 40.7426C14.7181 48.2497 19.0718 54.8814 25.427 59.0963L38.1292 67.5207C39.3834 68.3525 41.0151 68.347 42.2637 67.5067L55.178 58.8156C61.1992 54.7633 65.4051 48.5249 66.9036 41.4235L72.4464 15.1561C72.9345 12.8427 71.1696 10.6665 68.8053 10.6665Z" fill="url(#paint0_linear_2047_24450)"/>
<path fill-rule="evenodd" clip-rule="evenodd" d="M54.7539 27.2723C55.268 24.9996 53.7256 22.9331 51.3021 22.9331H44.6924C43.0036 23.0019 40.7272 21.6934 40.7272 21.6934V32.0941C40.7272 42.6322 46.8961 47.1093 49.7597 47.5224C50.2738 47.7293 50.6412 47.5916 49.9805 47.1093C46.0876 44.7676 43.8113 39.1882 43.5911 34.4356V24.9308C44.3991 25.4127 45.9409 25.4815 45.9409 25.4815H51.8162C53.3586 25.4815 54.1667 25.9637 54.7539 27.2723ZM25.1572 27.2723C24.6431 24.9996 26.2593 22.9331 28.609 22.9331H35.2191C36.9813 23.0019 39.1847 21.6934 39.1847 21.6934V32.0941C39.1847 42.6322 33.0154 47.1093 30.1514 47.5224C29.6373 47.7293 29.2703 47.5916 29.9313 47.1093C33.8234 44.7676 36.1002 39.1882 36.32 34.4356V24.9308C35.5128 25.4127 33.9702 25.4815 33.9702 25.4815H28.1683C26.6263 25.4815 25.8185 25.9637 25.1572 27.2723Z" fill="white"/>
<rect x="39.957" y="48.5825" width="4.37733" height="4.37733" transform="rotate(45 39.957 48.5825)" fill="white"/>
<defs>
<linearGradient id="paint0_linear_2047_24450" x1="15.6226" y1="41.4545" x2="66.0093" y2="41.4545" gradientUnits="userSpaceOnUse">
<stop stop-color="#F6CF9B"/>
<stop offset="1" stop-color="#A87026"/>
</linearGradient>
</defs>
</svg>
